<mxfile host="drawio-plugin" modified="2021-07-09T14:35:26.501Z" agent="5.0 (Windows NT 6.2; Win64; x64) AppleWebKit/537.36 (KHTML, like Gecko) Chrome/89.0.4389.90 Safari/537.36" etag="b4ihmOD2KDKQFmQgZdgL" version="14.7.4" type="embed"><diagram id="23iRSUPoRavnBvh4doch" name="Page-1"><mxGraphModel dx="544" dy="390" grid="0" gridSize="10" guides="1" tooltips="1" connect="1" arrows="1" fold="1" page="1" pageScale="1" pageWidth="1200" pageHeight="1920" math="1" shadow="0"><root><object label="" id="0"><mxCell/></object><mxCell id="1" parent="0"/><mxCell id="37" value="" style="shape=table;html=1;whiteSpace=wrap;startSize=0;container=1;collapsible=0;childLayout=tableLayout;" parent="1" vertex="1"><mxGeometry x="200" y="425" width="706" height="50" as="geometry"/></mxCell><mxCell id="38" value="" style="shape=partialRectangle;html=1;whiteSpace=wrap;collapsible=0;dropTarget=0;pointerEvents=0;fillColor=none;top=0;left=0;bottom=0;right=0;points=[[0,0.5],[1,0.5]];portConstraint=eastwest;" parent="37" vertex="1"><mxGeometry width="706" height="17" as="geometry"/></mxCell><mxCell id="39" value="0" style="shape=partialRectangle;html=1;whiteSpace=wrap;connectable=0;overflow=hidden;fillColor=none;top=0;left=0;bottom=0;right=0;" parent="38" vertex="1"><mxGeometry width="45" height="17" as="geometry"/></mxCell><mxCell id="40" value="1" style="shape=partialRectangle;html=1;whiteSpace=wrap;connectable=0;overflow=hidden;fillColor=none;top=0;left=0;bottom=0;right=0;" parent="38" vertex="1"><mxGeometry x="45" width="43" height="17" as="geometry"/></mxCell><mxCell id="41" value="2" style="shape=partialRectangle;html=1;whiteSpace=wrap;connectable=0;overflow=hidden;fillColor=none;top=0;left=0;bottom=0;right=0;" parent="38" vertex="1"><mxGeometry x="88" width="45" height="17" as="geometry"/></mxCell><mxCell id="42" value="3" style="shape=partialRectangle;html=1;whiteSpace=wrap;connectable=0;overflow=hidden;fillColor=none;top=0;left=0;bottom=0;right=0;" parent="38" vertex="1"><mxGeometry x="133" width="44" height="17" as="geometry"/></mxCell><mxCell id="43" value="4" style="shape=partialRectangle;html=1;whiteSpace=wrap;connectable=0;overflow=hidden;fillColor=none;top=0;left=0;bottom=0;right=0;" parent="38" vertex="1"><mxGeometry x="177" width="44" height="17" as="geometry"/></mxCell><mxCell id="44" value="5" style="shape=partialRectangle;html=1;whiteSpace=wrap;connectable=0;overflow=hidden;fillColor=none;top=0;left=0;bottom=0;right=0;" parent="38" vertex="1"><mxGeometry x="221" width="44" height="17" as="geometry"/></mxCell><mxCell id="45" value="6" style="shape=partialRectangle;html=1;whiteSpace=wrap;connectable=0;overflow=hidden;fillColor=none;top=0;left=0;bottom=0;right=0;" parent="38" vertex="1"><mxGeometry x="265" width="45" height="17" as="geometry"/></mxCell><mxCell id="46" value="7" style="shape=partialRectangle;html=1;whiteSpace=wrap;connectable=0;overflow=hidden;fillColor=none;top=0;left=0;bottom=0;right=0;" parent="38" vertex="1"><mxGeometry x="310" width="43" height="17" as="geometry"/></mxCell><mxCell id="47" value="8" style="shape=partialRectangle;html=1;whiteSpace=wrap;connectable=0;overflow=hidden;fillColor=none;top=0;left=0;bottom=0;right=0;" parent="38" vertex="1"><mxGeometry x="353" width="45" height="17" as="geometry"/></mxCell><mxCell id="48" value="9" style="shape=partialRectangle;html=1;whiteSpace=wrap;connectable=0;overflow=hidden;fillColor=none;top=0;left=0;bottom=0;right=0;" parent="38" vertex="1"><mxGeometry x="398" width="44" height="17" as="geometry"/></mxCell><mxCell id="49" value="10" style="shape=partialRectangle;html=1;whiteSpace=wrap;connectable=0;overflow=hidden;fillColor=none;top=0;left=0;bottom=0;right=0;" parent="38" vertex="1"><mxGeometry x="442" width="44" height="17" as="geometry"/></mxCell><mxCell id="50" value="11" style="shape=partialRectangle;html=1;whiteSpace=wrap;connectable=0;overflow=hidden;fillColor=none;top=0;left=0;bottom=0;right=0;" parent="38" vertex="1"><mxGeometry x="486" width="44" height="17" as="geometry"/></mxCell><mxCell id="131" value="12" style="shape=partialRectangle;html=1;whiteSpace=wrap;connectable=0;overflow=hidden;fillColor=none;top=0;left=0;bottom=0;right=0;" vertex="1" parent="38"><mxGeometry x="530" width="44" height="17" as="geometry"/></mxCell><mxCell id="133" value="13" style="shape=partialRectangle;html=1;whiteSpace=wrap;connectable=0;overflow=hidden;fillColor=none;top=0;left=0;bottom=0;right=0;" vertex="1" parent="38"><mxGeometry x="574" width="44" height="17" as="geometry"/></mxCell><mxCell id="135" value="14" style="shape=partialRectangle;html=1;whiteSpace=wrap;connectable=0;overflow=hidden;fillColor=none;top=0;left=0;bottom=0;right=0;" vertex="1" parent="38"><mxGeometry x="618" width="44" height="17" as="geometry"/></mxCell><mxCell id="137" value="15" style="shape=partialRectangle;html=1;whiteSpace=wrap;connectable=0;overflow=hidden;fillColor=none;top=0;left=0;bottom=0;right=0;" vertex="1" parent="38"><mxGeometry x="662" width="44" height="17" as="geometry"/></mxCell><mxCell id="51" value="" style="shape=partialRectangle;html=1;whiteSpace=wrap;collapsible=0;dropTarget=0;pointerEvents=0;fillColor=none;top=0;left=0;bottom=0;right=0;points=[[0,0.5],[1,0.5]];portConstraint=eastwest;" parent="37" vertex="1"><mxGeometry y="17" width="706" height="33" as="geometry"/></mxCell><mxCell id="52" value="0" style="shape=partialRectangle;html=1;whiteSpace=wrap;connectable=0;overflow=hidden;fillColor=none;top=0;left=0;bottom=0;right=0;" parent="51" vertex="1"><mxGeometry width="45" height="33" as="geometry"/></mxCell><mxCell id="53" value="1" style="shape=partialRectangle;html=1;whiteSpace=wrap;connectable=0;overflow=hidden;fillColor=none;top=0;left=0;bottom=0;right=0;" parent="51" vertex="1"><mxGeometry x="45" width="43" height="33" as="geometry"/></mxCell><mxCell id="54" value="1" style="shape=partialRectangle;html=1;whiteSpace=wrap;connectable=0;overflow=hidden;fillColor=none;top=0;left=0;bottom=0;right=0;" parent="51" vertex="1"><mxGeometry x="88" width="45" height="33" as="geometry"/></mxCell><mxCell id="55" value="3" style="shape=partialRectangle;html=1;whiteSpace=wrap;connectable=0;overflow=hidden;fillColor=none;top=0;left=0;bottom=0;right=0;" parent="51" vertex="1"><mxGeometry x="133" width="44" height="33" as="geometry"/></mxCell><mxCell id="56" value="4" style="shape=partialRectangle;html=1;whiteSpace=wrap;connectable=0;overflow=hidden;fillColor=none;top=0;left=0;bottom=0;right=0;" parent="51" vertex="1"><mxGeometry x="177" width="44" height="33" as="geometry"/></mxCell><mxCell id="57" value="5" style="shape=partialRectangle;html=1;whiteSpace=wrap;connectable=0;overflow=hidden;fillColor=none;top=0;left=0;bottom=0;right=0;" parent="51" vertex="1"><mxGeometry x="221" width="44" height="33" as="geometry"/></mxCell><mxCell id="58" value="6" style="shape=partialRectangle;html=1;whiteSpace=wrap;connectable=0;overflow=hidden;fillColor=none;top=0;left=0;bottom=0;right=0;" parent="51" vertex="1"><mxGeometry x="265" width="45" height="33" as="geometry"/></mxCell><mxCell id="59" value="7" style="shape=partialRectangle;html=1;whiteSpace=wrap;connectable=0;overflow=hidden;fillColor=none;top=0;left=0;bottom=0;right=0;" parent="51" vertex="1"><mxGeometry x="310" width="43" height="33" as="geometry"/></mxCell><mxCell id="60" value="8" style="shape=partialRectangle;html=1;whiteSpace=wrap;connectable=0;overflow=hidden;fillColor=none;top=0;left=0;bottom=0;right=0;" parent="51" vertex="1"><mxGeometry x="353" width="45" height="33" as="geometry"/></mxCell><mxCell id="61" value="9" style="shape=partialRectangle;html=1;whiteSpace=wrap;connectable=0;overflow=hidden;fillColor=none;top=0;left=0;bottom=0;right=0;" parent="51" vertex="1"><mxGeometry x="398" width="44" height="33" as="geometry"/></mxCell><mxCell id="62" value="10" style="shape=partialRectangle;html=1;whiteSpace=wrap;connectable=0;overflow=hidden;fillColor=none;top=0;left=0;bottom=0;right=0;" parent="51" vertex="1"><mxGeometry x="442" width="44" height="33" as="geometry"/></mxCell><mxCell id="63" value="11" style="shape=partialRectangle;html=1;whiteSpace=wrap;connectable=0;overflow=hidden;fillColor=none;top=0;left=0;bottom=0;right=0;" parent="51" vertex="1"><mxGeometry x="486" width="44" height="33" as="geometry"/></mxCell><mxCell id="132" value="12" style="shape=partialRectangle;html=1;whiteSpace=wrap;connectable=0;overflow=hidden;fillColor=none;top=0;left=0;bottom=0;right=0;" vertex="1" parent="51"><mxGeometry x="530" width="44" height="33" as="geometry"/></mxCell><mxCell id="134" value="13" style="shape=partialRectangle;html=1;whiteSpace=wrap;connectable=0;overflow=hidden;fillColor=none;top=0;left=0;bottom=0;right=0;" vertex="1" parent="51"><mxGeometry x="574" width="44" height="33" as="geometry"/></mxCell><mxCell id="136" value="14" style="shape=partialRectangle;html=1;whiteSpace=wrap;connectable=0;overflow=hidden;fillColor=none;top=0;left=0;bottom=0;right=0;" vertex="1" parent="51"><mxGeometry x="618" width="44" height="33" as="geometry"/></mxCell><mxCell id="138" value="15" style="shape=partialRectangle;html=1;whiteSpace=wrap;connectable=0;overflow=hidden;fillColor=none;top=0;left=0;bottom=0;right=0;" vertex="1" parent="51"><mxGeometry x="662" width="44" height="33" as="geometry"/></mxCell><mxCell id="65" value="dy" style="text;html=1;align=center;verticalAlign=middle;resizable=0;points=[];autosize=1;strokeColor=none;fontSize=16;fontFamily=Jetbrains Mono;" parent="1" vertex="1"><mxGeometry x="160" y="445" width="30" height="20" as="geometry"/></mxCell><mxCell id="66" value="dy[j]:j 원의 돈을 거슬러주는 데 사용하는 동전의 최소 갯수" style="text;html=1;align=center;verticalAlign=middle;resizable=0;points=[];autosize=1;strokeColor=none;fontSize=16;fontFamily=Jetbrains Mono;" parent="1" vertex="1"><mxGeometry x="200" y="519" width="490" height="22" as="geometry"/></mxCell><mxCell id="81" value="" style="shape=table;html=1;whiteSpace=wrap;startSize=0;container=1;collapsible=0;childLayout=tableLayout;" parent="1" vertex="1"><mxGeometry x="191" y="260" width="158" height="60" as="geometry"/></mxCell><mxCell id="82" value="" style="shape=partialRectangle;html=1;whiteSpace=wrap;collapsible=0;dropTarget=0;pointerEvents=0;fillColor=none;top=0;left=0;bottom=0;right=0;points=[[0,0.5],[1,0.5]];portConstraint=eastwest;" parent="81" vertex="1"><mxGeometry width="158" height="30" as="geometry"/></mxCell><mxCell id="83" value="0" style="shape=partialRectangle;html=1;whiteSpace=wrap;connectable=0;overflow=hidden;fillColor=none;top=0;left=0;bottom=0;right=0;" parent="82" vertex="1"><mxGeometry width="53" height="30" as="geometry"/></mxCell><mxCell id="84" value="1" style="shape=partialRectangle;html=1;whiteSpace=wrap;connectable=0;overflow=hidden;fillColor=none;top=0;left=0;bottom=0;right=0;" parent="82" vertex="1"><mxGeometry x="53" width="52" height="30" as="geometry"/></mxCell><mxCell id="85" value="2" style="shape=partialRectangle;html=1;whiteSpace=wrap;connectable=0;overflow=hidden;fillColor=none;top=0;left=0;bottom=0;right=0;" parent="82" vertex="1"><mxGeometry x="105" width="53" height="30" as="geometry"/></mxCell><mxCell id="87" value="" style="shape=partialRectangle;html=1;whiteSpace=wrap;collapsible=0;dropTarget=0;pointerEvents=0;fillColor=none;top=0;left=0;bottom=0;right=0;points=[[0,0.5],[1,0.5]];portConstraint=eastwest;" parent="81" vertex="1"><mxGeometry y="30" width="158" height="30" as="geometry"/></mxCell><mxCell id="88" value="1" style="shape=partialRectangle;html=1;whiteSpace=wrap;connectable=0;overflow=hidden;fillColor=none;top=0;left=0;bottom=0;right=0;" parent="87" vertex="1"><mxGeometry width="53" height="30" as="geometry"/></mxCell><mxCell id="89" value="2" style="shape=partialRectangle;html=1;whiteSpace=wrap;connectable=0;overflow=hidden;fillColor=none;top=0;left=0;bottom=0;right=0;" parent="87" vertex="1"><mxGeometry x="53" width="52" height="30" as="geometry"/></mxCell><mxCell id="90" value="5" style="shape=partialRectangle;html=1;whiteSpace=wrap;connectable=0;overflow=hidden;fillColor=none;top=0;left=0;bottom=0;right=0;" parent="87" vertex="1"><mxGeometry x="105" width="53" height="30" as="geometry"/></mxCell><mxCell id="93" value="c" style="text;html=1;align=center;verticalAlign=middle;resizable=0;points=[];autosize=1;strokeColor=none;fontSize=16;fontFamily=Jetbrains Mono;" parent="1" vertex="1"><mxGeometry x="155" y="292" width="20" height="22" as="geometry"/></mxCell><mxCell id="94" value="" style="shape=flexArrow;endArrow=classic;html=1;fontFamily=Jetbrains Mono;fontSource=https%3A%2F%2Ffonts.googleapis.com%2Fcss%3Ffamily%3DJetbrains%2BMono;fontSize=16;endWidth=8.275862068965518;endSize=3.8068965517241375;" parent="1" edge="1"><mxGeometry width="50" height="50" relative="1" as="geometry"><mxPoint x="220" y="360" as="sourcePoint"/><mxPoint x="220" y="330" as="targetPoint"/></mxGeometry></mxCell><mxCell id="96" value="coins" style="text;html=1;align=center;verticalAlign=middle;resizable=0;points=[];autosize=1;strokeColor=none;fontSize=16;fontFamily=Jetbrains Mono;" parent="1" vertex="1"><mxGeometry x="136" y="219" width="58" height="22" as="geometry"/></mxCell><mxCell id="103" value="(1)" style="text;html=1;align=center;verticalAlign=middle;resizable=0;points=[];autosize=1;strokeColor=none;fontSize=16;fontFamily=Jetbrains Mono;" parent="1" vertex="1"><mxGeometry x="201" y="365" width="39" height="22" as="geometry"/></mxCell><mxCell id="104" value="" style="shape=flexArrow;endArrow=classic;html=1;fontFamily=Jetbrains Mono;fontSource=https%3A%2F%2Ffonts.googleapis.com%2Fcss%3Ffamily%3DJetbrains%2BMono;fontSize=16;endWidth=8.275862068965518;endSize=3.8068965517241375;" parent="1" edge="1"><mxGeometry width="50" height="50" relative="1" as="geometry"><mxPoint x="271" y="359.9999999999999" as="sourcePoint"/><mxPoint x="271" y="329.9999999999999" as="targetPoint"/></mxGeometry></mxCell><mxCell id="105" value="(2)" style="text;html=1;align=center;verticalAlign=middle;resizable=0;points=[];autosize=1;strokeColor=none;fontSize=16;fontFamily=Jetbrains Mono;" parent="1" vertex="1"><mxGeometry x="252" y="365" width="39" height="22" as="geometry"/></mxCell><mxCell id="106" value="" style="shape=flexArrow;endArrow=classic;html=1;fontFamily=Jetbrains Mono;fontSource=https%3A%2F%2Ffonts.googleapis.com%2Fcss%3Ffamily%3DJetbrains%2BMono;fontSize=16;endWidth=8.275862068965518;endSize=3.8068965517241375;" parent="1" edge="1"><mxGeometry width="50" height="50" relative="1" as="geometry"><mxPoint x="324" y="359.9999999999999" as="sourcePoint"/><mxPoint x="324" y="329.9999999999999" as="targetPoint"/></mxGeometry></mxCell><mxCell id="107" value="(3)" style="text;html=1;align=center;verticalAlign=middle;resizable=0;points=[];autosize=1;strokeColor=none;fontSize=16;fontFamily=Jetbrains Mono;" parent="1" vertex="1"><mxGeometry x="306" y="365" width="39" height="22" as="geometry"/></mxCell><mxCell id="124" value="m" style="text;html=1;align=center;verticalAlign=middle;resizable=0;points=[];autosize=1;strokeColor=none;" parent="1" vertex="1"><mxGeometry x="701.5" y="387" width="20" height="18" as="geometry"/></mxCell><mxCell id="130" value="n" style="text;html=1;align=center;verticalAlign=middle;resizable=0;points=[];autosize=1;strokeColor=none;" vertex="1" parent="1"><mxGeometry x="321" y="235" width="16" height="18" as="geometry"/></mxCell><mxCell id="139" value="1) coins[i] 원짜리로 모두 거슬러줬을 때 동전의 최소 갯수" style="text;html=1;align=center;verticalAlign=middle;resizable=0;points=[];autosize=1;strokeColor=none;" vertex="1" parent="1"><mxGeometry x="206" y="585" width="312" height="18" as="geometry"/></mxCell><mxCell id="140" value="&lt;font face=&quot;Jetbrains Mono&quot; data-font-src=&quot;https://fonts.googleapis.com/css?family=Jetbrains+Mono&quot;&gt;dy[j] = min(dy[j-c[i]] + 1, dy[j])&lt;/font&gt;" style="text;html=1;align=center;verticalAlign=middle;resizable=0;points=[];autosize=1;strokeColor=none;" vertex="1" parent="1"><mxGeometry x="213" y="628" width="255" height="18" as="geometry"/></mxCell><mxCell id="141" value="dy[2- 2] + 1" style="text;html=1;align=center;verticalAlign=middle;resizable=0;points=[];autosize=1;strokeColor=none;" vertex="1" parent="1"><mxGeometry x="235" y="690" width="70" height="18" as="geometry"/></mxCell></root></mxGraphModel></diagram></mxfile>